HIERARCHY
ROOT Hips
{
	OFFSET 0.000000 100.481300 0.000000
	CHANNELS 6 Xposition Yposition Zposition Xrotation Yrotation Zrotation
	JOINT Spine
	{
		OFFSET -0.279200 12.230698 -2.892100
		CHANNELS 3 Xrotation Yrotation Zrotation
		JOINT Spine1
		{
			OFFSET -0.325700 14.269203 -3.374200
			CHANNELS 3 Xrotation Yrotation Zrotation
			JOINT Spine2
			{
				OFFSET -0.372300 16.307602 -0.352600
				CHANNELS 3 Xrotation Yrotation Zrotation
				JOINT Neck
				{
					OFFSET -0.418800 17.814194 8.416900
					CHANNELS 3 Xrotation Yrotation Zrotation
					JOINT Head
					{
						OFFSET 0.000000 7.031097 3.806800
						CHANNELS 3 Xrotation Yrotation Zrotation
						JOINT HeadTop_End
						{
							OFFSET 0.000000 24.646606 12.978600
							CHANNELS 3 Xrotation Yrotation Zrotation
							End Site
							{
								OFFSET 0.000000 27.854965 0.000000
							}
						}
					}
				}
				JOINT LeftShoulder
				{
					OFFSET 16.952999 14.495407 -7.737500
					CHANNELS 3 Xrotation Yrotation Zrotation
					JOINT LeftArm
					{
						OFFSET 9.308998 -2.777710 0.208600
						CHANNELS 3 Xrotation Yrotation Zrotation
						JOINT LeftForeArm
						{
							OFFSET 29.972298 0.000000 0.000000
							CHANNELS 3 Xrotation Yrotation Zrotation
							JOINT LeftHand
							{
								OFFSET 26.026505 0.000000 0.000000
								CHANNELS 3 Xrotation Yrotation Zrotation
								JOINT LeftHandThumb1
								{
									OFFSET 12.240501 -7.147949 9.207150
									CHANNELS 3 Xrotation Yrotation Zrotation
									JOINT LeftHandThumb2
									{
										OFFSET 4.138618 -2.389435 2.389433
										CHANNELS 3 Xrotation Yrotation Zrotation
										JOINT LeftHandThumb3
										{
											OFFSET 2.726913 -1.574387 1.574386
											CHANNELS 3 Xrotation Yrotation Zrotation
											JOINT LeftHandThumb4
											{
												OFFSET 3.941010 -2.275345 2.275342
												CHANNELS 3 Xrotation Yrotation Zrotation
												End Site
												{
													OFFSET -0.005798 5.087799 0.009903
												}
											}
										}
									}
								}
								JOINT LeftHandIndex1
								{
									OFFSET 24.424698 -1.985611 5.953459
									CHANNELS 3 Xrotation Yrotation Zrotation
									JOINT LeftHandIndex2
									{
										OFFSET 6.426697 0.000000 0.000000
										CHANNELS 3 Xrotation Yrotation Zrotation
										JOINT LeftHandIndex3
										{
											OFFSET 5.337898 0.000000 0.000000
											CHANNELS 3 Xrotation Yrotation Zrotation
											JOINT LeftHandIndex4
											{
												OFFSET 4.409401 0.000000 0.000000
												CHANNELS 3 Xrotation Yrotation Zrotation
												End Site
												{
													OFFSET 0.000000 4.409363 0.014373
												}
											}
										}
									}
								}
								JOINT LeftHandMiddle1
								{
									OFFSET 23.810104 0.000000 0.000000
									CHANNELS 3 Xrotation Yrotation Zrotation
									JOINT LeftHandMiddle2
									{
										OFFSET 7.176498 0.000000 0.000000
										CHANNELS 3 Xrotation Yrotation Zrotation
										JOINT LeftHandMiddle3
										{
											OFFSET 6.774902 0.000000 0.000000
											CHANNELS 3 Xrotation Yrotation Zrotation
											JOINT LeftHandMiddle4
											{
												OFFSET 5.403328 0.000000 0.000000
												CHANNELS 3 Xrotation Yrotation Zrotation
												End Site
												{
													OFFSET -0.027702 5.403244 0.017414
												}
											}
										}
									}
								}
								JOINT LeftHandRing1
								{
									OFFSET 22.908401 -0.839279 -6.020567
									CHANNELS 3 Xrotation Yrotation Zrotation
									JOINT LeftHandRing2
									{
										OFFSET 6.337502 0.000000 0.000000
										CHANNELS 3 Xrotation Yrotation Zrotation
										JOINT LeftHandRing3
										{
											OFFSET 5.779297 0.000000 0.000000
											CHANNELS 3 Xrotation Yrotation Zrotation
											JOINT LeftHandRing4
											{
												OFFSET 4.965698 0.000000 0.000000
												CHANNELS 3 Xrotation Yrotation Zrotation
												End Site
												{
													OFFSET 0.000000 4.965668 0.016186
												}
											}
										}
									}
								}
								JOINT LeftHandPinky1
								{
									OFFSET 20.037003 -1.530319 -10.950146
									CHANNELS 3 Xrotation Yrotation Zrotation
									JOINT LeftHandPinky2
									{
										OFFSET 5.254700 0.000000 0.000000
										CHANNELS 3 Xrotation Yrotation Zrotation
										JOINT LeftHandPinky3
										{
											OFFSET 4.810204 0.000000 0.000000
											CHANNELS 3 Xrotation Yrotation Zrotation
											JOINT LeftHandPinky4
											{
												OFFSET 3.647202 0.000000 0.000000
												CHANNELS 3 Xrotation Yrotation Zrotation
												End Site
												{
													OFFSET 0.000000 3.647186 0.011889
												}
											}
										}
									}
								}
							}
						}
					}
				}
				JOINT RightShoulder
				{
					OFFSET -15.141001 14.495407 -7.737500
					CHANNELS 3 Xrotation Yrotation Zrotation
					JOINT RightArm
					{
						OFFSET -9.308998 -2.777710 0.208500
						CHANNELS 3 Xrotation Yrotation Zrotation
						JOINT RightForeArm
						{
							OFFSET -29.972300 0.000000 0.000000
							CHANNELS 3 Xrotation Yrotation Zrotation
							JOINT RightHand
							{
								OFFSET -26.026505 0.000000 0.000000
								CHANNELS 3 Xrotation Yrotation Zrotation
								JOINT RightHandThumb1
								{
									OFFSET -12.240601 -7.148026 9.207092
									CHANNELS 3 Xrotation Yrotation Zrotation
									JOINT RightHandThumb2
									{
										OFFSET -4.138618 -2.389435 2.389433
										CHANNELS 3 Xrotation Yrotation Zrotation
										JOINT RightHandThumb3
										{
											OFFSET -2.726974 -1.574417 1.574421
											CHANNELS 3 Xrotation Yrotation Zrotation
											JOINT RightHandThumb4
											{
												OFFSET -3.941010 -2.275345 2.275343
												CHANNELS 3 Xrotation Yrotation Zrotation
												End Site
												{
													OFFSET 0.005814 5.087799 0.009927
												}
											}
										}
									}
								}
								JOINT RightHandIndex1
								{
									OFFSET -24.424698 -1.985657 5.953444
									CHANNELS 3 Xrotation Yrotation Zrotation
									JOINT RightHandIndex2
									{
										OFFSET -6.426697 0.000000 0.000000
										CHANNELS 3 Xrotation Yrotation Zrotation
										JOINT RightHandIndex3
										{
											OFFSET -5.337898 0.000000 0.000000
											CHANNELS 3 Xrotation Yrotation Zrotation
											JOINT RightHandIndex4
											{
												OFFSET -4.409401 0.000000 0.000000
												CHANNELS 3 Xrotation Yrotation Zrotation
												End Site
												{
													OFFSET 0.000000 4.409363 0.014408
												}
											}
										}
									}
								}
								JOINT RightHandMiddle1
								{
									OFFSET -23.810097 0.000000 0.000000
									CHANNELS 3 Xrotation Yrotation Zrotation
									JOINT RightHandMiddle2
									{
										OFFSET -7.176498 0.000000 0.000000
										CHANNELS 3 Xrotation Yrotation Zrotation
										JOINT RightHandMiddle3
										{
											OFFSET -6.774902 0.000000 0.000000
											CHANNELS 3 Xrotation Yrotation Zrotation
											JOINT RightHandMiddle4
											{
												OFFSET -5.403328 0.000000 0.000000
												CHANNELS 3 Xrotation Yrotation Zrotation
												End Site
												{
													OFFSET 0.027702 5.403244 0.017457
												}
											}
										}
									}
								}
								JOINT RightHandRing1
								{
									OFFSET -22.908302 -0.839325 -6.020576
									CHANNELS 3 Xrotation Yrotation Zrotation
									JOINT RightHandRing2
									{
										OFFSET -6.337502 0.000000 0.000000
										CHANNELS 3 Xrotation Yrotation Zrotation
										JOINT RightHandRing3
										{
											OFFSET -5.779297 0.000000 0.000000
											CHANNELS 3 Xrotation Yrotation Zrotation
											JOINT RightHandRing4
											{
												OFFSET -4.965698 0.000000 0.000000
												CHANNELS 3 Xrotation Yrotation Zrotation
												End Site
												{
													OFFSET 0.000000 4.965668 0.016226
												}
											}
										}
									}
								}
								JOINT RightHandPinky1
								{
									OFFSET -20.037003 -1.530334 -10.950259
									CHANNELS 3 Xrotation Yrotation Zrotation
									JOINT RightHandPinky2
									{
										OFFSET -5.254700 0.000000 0.000000
										CHANNELS 3 Xrotation Yrotation Zrotation
										JOINT RightHandPinky3
										{
											OFFSET -4.810204 0.000000 0.000000
											CHANNELS 3 Xrotation Yrotation Zrotation
											JOINT RightHandPinky4
											{
												OFFSET -3.647202 0.000000 0.000000
												CHANNELS 3 Xrotation Yrotation Zrotation
												End Site
												{
													OFFSET 0.000000 3.647186 0.011917
												}
											}
										}
									}
								}
							}
						}
					}
				}
			}
		}
	}
	JOINT LeftUpLeg
	{
		OFFSET 15.427100 -6.655098 0.678600
		CHANNELS 3 Xrotation Yrotation Zrotation
		JOINT LeftLeg
		{
			OFFSET 4.081073 -39.591068 13.024000
			CHANNELS 3 Xrotation Yrotation Zrotation
			JOINT LeftFoot
			{
				OFFSET -4.081074 -37.707932 -15.979700
				CHANNELS 3 Xrotation Yrotation Zrotation
				JOINT LeftToeBase
				{
					OFFSET 5.346399 -15.068900 20.645000
					CHANNELS 3 Xrotation Yrotation Zrotation
					JOINT LeftToe_End
					{
						OFFSET 2.754700 0.931300 11.300900
						CHANNELS 3 Xrotation Yrotation Zrotation
						End Site
						{
							OFFSET 0.000000 11.669021 0.000000
						}
					}
				}
			}
		}
	}
	JOINT RightUpLeg
	{
		OFFSET -15.569500 -6.655098 0.678600
		CHANNELS 3 Xrotation Yrotation Zrotation
		JOINT RightLeg
		{
			OFFSET -4.081825 -39.591045 13.023800
			CHANNELS 3 Xrotation Yrotation Zrotation
			JOINT RightFoot
			{
				OFFSET 4.081824 -37.707954 -15.979600
				CHANNELS 3 Xrotation Yrotation Zrotation
				JOINT RightToeBase
				{
					OFFSET -5.346400 -15.068900 20.645000
					CHANNELS 3 Xrotation Yrotation Zrotation
					JOINT RightToe_End
					{
						OFFSET -2.754700 0.931300 11.300900
						CHANNELS 3 Xrotation Yrotation Zrotation
						End Site
						{
							OFFSET 0.000000 11.669021 0.000000
						}
					}
				}
			}
		}
	}
}
MOTION
Frames: 4
Frame Time: 0.033333
1.639837 66.582222 1.816307 26.028644 11.371835 -2.126618 4.548355 -7.510684 -4.327434 7.883584 -9.342898 3.674845 8.019965 -7.529382 3.493857 -9.346922 5.119685 -7.715013 -25.711357 4.427248 7.833985 -0.000000 0.000000 0.000000 6.383799 -35.236205 27.999992 -58.175146 -15.668133 -36.823411 -0.002135 -86.420082 -0.002090 -16.810894 -22.342403 -9.945449 4.086144 1.995884 -9.616340 12.983625 28.287505 -7.488771 -41.616411 82.741035 70.590873 0.000001 0.000001 -0.000000 6.271778 8.188602 -93.450027 5.856715 5.851066 -90.055464 5.856697 5.851050 -90.055409 -0.000001 0.000002 -0.000003 6.271784 8.188607 -93.450034 5.856713 5.851061 -90.055457 5.856704 5.851056 -90.055416 -0.000002 0.000001 0.000000 6.271778 8.188602 -93.450027 5.856715 5.851070 -90.055470 5.856700 5.851045 -90.055429 0.000000 0.000001 -0.000001 6.271765 8.188591 -93.450027 5.856725 5.851074 -90.055464 5.856703 5.851052 -90.055409 -0.000001 0.000001 0.000001 5.979623 -16.032418 18.747416 30.575390 15.913455 34.488945 -0.000003 28.892960 -0.000010 -17.755635 -6.291856 -10.789045 -6.402218 6.496441 -4.648241 9.019730 -37.404694 -3.629091 -4.366473 -63.057939 -28.366284 0.000002 -0.000001 0.000003 3.635267 -6.807121 76.668170 3.382444 -4.479679 74.098024 3.382439 -4.479699 74.098024 0.000000 -0.000002 0.000000 3.635266 -6.807120 76.668170 3.382449 -4.479679 74.098024 3.382448 -4.479703 74.098011 -0.000000 0.000001 0.000000 3.635263 -6.807122 76.668177 3.382450 -4.479685 74.098031 3.382443 -4.479696 74.098018 0.000000 -0.000003 0.000000 3.635267 -6.807121 76.668170 3.382454 -4.479685 74.098031 3.382439 -4.479689 74.098024 0.000001 -0.000001 -0.000002 18.363011 20.517822 8.020981 13.058715 -10.586751 -4.302358 -46.667899 8.757825 -7.917058 -20.041199 0.000003 0.000001 -0.000000 0.000002 0.000000 -92.932995 -1.754198 4.938539 91.019142 5.401174 1.544110 26.259899 7.447929 -9.613054 -38.097211 8.166398 -9.944767 0.000000 -0.000000 -0.000000 
5.129408 69.109741 12.699717 26.974898 7.030309 -4.223377 3.732285 -8.210179 -2.601543 5.784790 -9.761926 3.630806 5.889894 -8.212696 3.405221 -6.758092 5.718914 -5.681593 -24.664517 10.342716 7.385623 -0.000000 -0.000000 0.000000 3.695368 -31.245097 28.862419 -50.110448 -20.234050 -44.983739 -0.000032 -72.735682 -0.000036 -11.055925 -28.428760 -10.140165 3.576810 1.553106 -8.872423 12.569580 27.395438 -7.258679 -22.154668 78.629616 50.045442 -0.000001 0.000000 0.000000 5.713461 8.195483 -87.975377 5.301781 5.825319 -84.603934 5.283471 5.823564 -84.423604 0.000002 0.000002 0.000000 5.713466 8.195496 -87.975364 5.301787 5.825316 -84.603928 5.283476 5.823570 -84.423604 0.000001 0.000003 0.000002 5.713461 8.195483 -87.975384 5.301784 5.825320 -84.603934 5.283454 5.823558 -84.423590 0.000003 -0.000000 0.000004 5.713449 8.195473 -87.975377 5.301789 5.825328 -84.603928 5.283476 5.823564 -84.423604 0.000001 -0.000002 0.000002 1.093143 -11.249244 9.960595 20.874337 12.713772 35.497425 -0.000001 35.086351 -0.000002 -10.486154 -3.933204 2.172096 -4.656242 6.216142 -1.999609 9.101318 -38.111161 -3.661127 -4.366492 -63.057925 -28.366319 -0.000000 -0.000002 -0.000004 3.876495 -6.857224 79.700849 3.620182 -4.540501 77.120690 3.620177 -4.540505 77.120711 -0.000000 0.000002 -0.000000 3.876494 -6.857223 79.700849 3.620186 -4.540502 77.120690 3.620183 -4.540507 77.120690 0.000000 -0.000001 -0.000001 3.876491 -6.857227 79.700835 3.620192 -4.540508 77.120690 3.620180 -4.540507 77.120704 -0.000000 0.000000 -0.000002 3.876495 -6.857224 79.700849 3.620192 -4.540512 77.120690 3.620171 -4.540499 77.120704 0.000001 0.000001 0.000002 27.018266 21.136910 6.575810 4.422027 -5.350279 -3.645006 -28.907662 6.944862 -10.057360 -39.762848 0.000005 0.000013 0.000001 -0.000002 -0.000000 -94.774885 -6.240890 9.326801 77.392136 4.220022 0.708190 16.648624 -1.244569 -12.357991 -9.021867 -0.181193 1.966034 -0.000001 0.000001 -0.000000 
8.120361 69.524277 20.043449 26.523605 2.773601 -6.826680 4.074239 -9.026425 0.557975 5.701620 -10.627849 3.735643 5.768652 -9.332408 3.452946 -6.863885 6.110968 -3.640052 -24.037988 16.826289 7.160580 -0.000000 0.000000 0.000000 -2.510600 -25.438507 21.539335 -35.763752 -26.959385 -45.724346 -0.000006 -60.275593 -0.000006 -4.848166 -30.904475 -7.797625 3.210207 1.076364 -8.353271 12.189845 26.451646 -7.687713 -13.311316 73.452681 40.011118 0.000000 0.000000 0.000000 5.107339 8.142913 -82.009453 4.702862 5.737684 -78.663794 4.666844 5.730368 -78.303242 0.000003 -0.000000 0.000001 5.107347 8.142898 -82.009453 4.702849 5.737682 -78.663808 4.666845 5.730373 -78.303228 0.000002 -0.000003 0.000003 5.107339 8.142913 -82.009453 4.702865 5.737685 -78.663794 4.666835 5.730373 -78.303228 0.000002 -0.000003 0.000001 5.107330 8.142903 -82.009453 4.702869 5.737687 -78.663794 4.666848 5.730368 -78.303242 -0.000001 -0.000003 -0.000002 -0.323543 -5.938646 7.827954 10.123263 12.914235 30.734209 -0.000014 41.939639 -0.000003 -12.672672 2.086076 8.693005 -2.635787 5.981262 1.026580 9.220552 -39.138801 -3.705982 -4.366519 -63.057946 -28.366320 -0.000004 -0.000002 -0.000004 4.212758 -6.905375 83.882591 3.952567 -4.603677 81.288663 3.952572 -4.603680 81.288636 -0.000001 0.000000 0.000000 4.212756 -6.905374 83.882591 3.952569 -4.603679 81.288663 3.952578 -4.603683 81.288656 -0.000001 -0.000000 0.000000 4.212757 -6.905375 83.882605 3.952570 -4.603682 81.288656 3.952573 -4.603678 81.288636 -0.000001 0.000001 -0.000002 4.212759 -6.905375 83.882591 3.952575 -4.603687 81.288663 3.952568 -4.603672 81.288643 -0.000000 -0.000000 -0.000003 14.168245 17.263713 8.728686 29.069951 0.319848 2.295880 -3.358904 6.409232 -2.716655 -49.316636 2.138528 -15.602701 -0.000000 0.000001 0.000000 -93.197235 -10.333324 10.769405 64.820360 2.753507 2.405024 7.716057 -1.285532 -12.980625 -6.100850 0.000002 0.000004 -0.000000 0.000000 -0.000000 
10.572386 68.480835 27.860538 24.633287 0.501915 -8.481911 5.362095 -9.678594 3.299925 7.618458 -11.569916 3.659385 7.644070 -10.522309 3.337755 -8.469656 6.124561 -1.960095 -23.991229 21.172319 7.674425 -0.000000 -0.000000 0.000000 -7.940908 -16.406101 10.402584 -22.875873 -30.991686 -47.024510 -0.000015 -43.856167 -0.000007 -1.148370 -31.951861 -6.391305 2.956139 0.574877 -8.011230 11.841071 25.472941 -8.642147 -8.822440 67.688978 34.235353 -0.000001 0.000001 0.000001 4.471573 8.018639 -75.655779 4.078642 5.577037 -72.337960 4.026187 5.560153 -71.797439 -0.000003 0.000001 -0.000001 4.471573 8.018639 -75.655779 4.078642 5.577046 -72.337960 4.026189 5.560151 -71.797446 -0.000005 0.000000 -0.000001 4.471573 8.018639 -75.655779 4.078644 5.577047 -72.337960 4.026185 5.560139 -71.797432 -0.000002 -0.000001 0.000002 4.471569 8.018630 -75.655779 4.078651 5.577045 -72.337960 4.026192 5.560157 -71.797439 -0.000002 -0.000003 -0.000000 0.594403 -2.297474 10.370072 -3.657507 17.202467 24.003505 -0.000018 50.065457 0.000018 -21.152988 7.006192 10.815643 -0.513116 5.848102 4.178854 9.353082 -40.273555 -3.752996 -4.366462 -63.057925 -28.366303 -0.000003 -0.000002 0.000002 4.582794 -6.929996 88.447801 4.319608 -4.644945 85.838894 4.319608 -4.644952 85.838887 0.000001 0.000001 -0.000004 4.582793 -6.929995 88.447801 4.319611 -4.644947 85.838894 4.319610 -4.644954 85.838887 0.000001 0.000000 0.000001 4.582794 -6.929996 88.447801 4.319614 -4.644951 85.838894 4.319607 -4.644949 85.838887 0.000001 0.000001 -0.000001 4.582794 -6.929995 88.447801 4.319617 -4.644955 85.838894 4.319597 -4.644944 85.838887 0.000002 -0.000000 -0.000000 3.554112 15.134118 8.318189 41.720660 -4.075498 2.681413 31.878221 -0.656561 6.543826 3.634351 -10.610683 -20.409102 0.000003 0.000000 -0.000001 -87.916235 -14.423918 11.482365 58.376213 1.984365 3.273785 -2.630464 -2.471457 -15.033432 -9.601925 -0.000000 0.000001 0.000001 0.000000 -0.000000 
